<svg width="120" height="56" fill="none" xmlns="http://www.w3.org/2000/svg"><path d="M13.195 44H6.07l.047-3.68h7.078c2.438 0 4.47-.508 6.094-1.523 1.625-1.031 2.844-2.469 3.656-4.313.828-1.859 1.242-4.03 1.242-6.515v-2.086c0-1.953-.234-3.688-.703-5.203-.468-1.532-1.156-2.82-2.062-3.867a8.715 8.715 0 0 0-3.328-2.415c-1.297-.546-2.79-.82-4.477-.82H5.93V9.875h7.687c2.235 0 4.274.375 6.117 1.125a13.15 13.15 0 0 1 4.758 3.21c1.344 1.392 2.375 3.08 3.094 5.063.719 1.97 1.078 4.188 1.078 6.657v2.039c0 2.468-.36 4.695-1.078 6.68-.719 1.968-1.758 3.648-3.117 5.038-1.344 1.391-2.969 2.461-4.875 3.211-1.89.735-4.024 1.102-6.399 1.102ZM8.485 9.875V44H3.96V9.875h4.523Z" fill="#85171A"/><path d="M51.248 35.375c0-.797-.125-1.5-.375-2.11-.234-.624-.656-1.187-1.265-1.687-.594-.5-1.422-.976-2.485-1.43-1.046-.453-2.375-.914-3.984-1.382-1.687-.5-3.21-1.055-4.57-1.664-1.36-.625-2.524-1.336-3.492-2.133-.97-.797-1.711-1.711-2.227-2.742-.516-1.032-.773-2.211-.773-3.54 0-1.328.273-2.554.82-3.68a8.61 8.61 0 0 1 2.344-2.929c1.03-.844 2.257-1.5 3.68-1.969 1.421-.468 3.007-.703 4.757-.703 2.563 0 4.735.492 6.516 1.477 1.797.969 3.164 2.242 4.101 3.82.938 1.563 1.407 3.235 1.407 5.016h-4.5c0-1.282-.274-2.414-.82-3.399-.548-1-1.376-1.78-2.485-2.343-1.11-.579-2.516-.868-4.219-.868-1.61 0-2.937.243-3.984.727-1.047.484-1.828 1.14-2.344 1.969-.5.828-.75 1.773-.75 2.836 0 .718.148 1.375.445 1.968.313.578.79 1.118 1.43 1.618.656.5 1.484.96 2.484 1.382 1.016.422 2.227.828 3.633 1.22 1.938.546 3.61 1.155 5.016 1.827 1.406.672 2.562 1.43 3.469 2.274.921.828 1.601 1.773 2.039 2.836.453 1.047.68 2.234.68 3.562 0 1.39-.282 2.649-.844 3.774a8.205 8.205 0 0 1-2.414 2.882c-1.047.797-2.305 1.414-3.774 1.852-1.453.422-3.078.633-4.875.633-1.578 0-3.133-.219-4.664-.657a13.9 13.9 0 0 1-4.148-1.968 10.317 10.317 0 0 1-2.977-3.235c-.734-1.297-1.102-2.797-1.102-4.5h4.5c0 1.172.227 2.18.68 3.024a6.009 6.009 0 0 0 1.852 2.062 8.642 8.642 0 0 0 2.695 1.22c1.016.25 2.07.374 3.164.374 1.578 0 2.914-.219 4.008-.656 1.094-.438 1.922-1.063 2.484-1.875.578-.813.867-1.774.867-2.883Z" fill="#DC2025"/><path d="M64.013 9.875V44h-4.524V9.875h4.524Z" fill="#FEBA08"/><path d="M73.817 18H72.27l.01-1.143h1.537c.385 0 .708-.086.972-.258.264-.176.462-.432.596-.767.136-.335.205-.74.205-1.216v-.346c0-.365-.04-.686-.117-.962a1.912 1.912 0 0 0-.337-.699 1.409 1.409 0 0 0-.552-.424 1.823 1.823 0 0 0-.752-.147H72.24v-1.147h1.592c.475 0 .91.081 1.304.244.397.16.74.389 1.03.688.29.3.513.658.669 1.075.16.413.24.873.24 1.381v.337c0 .505-.08.965-.24 1.382a3.08 3.08 0 0 1-.669 1.074c-.286.297-.63.526-1.03.689-.397.16-.837.239-1.319.239Zm-.717-7.11V18h-1.465v-7.11H73.1Zm7.403 5.982 1.416-5.981h.79l.181.996L81.381 18h-.85l-.029-1.128Zm-.728-5.981 1.172 5.981L80.849 18h-.947l-1.577-7.11h1.45Zm4.36 5.957 1.158-5.957h1.45L85.17 18h-.948l-.088-1.152Zm-.981-5.957 1.426 6.005L84.54 18h-.849l-1.519-6.118.196-.991h.786Zm6.592 0V18h-1.46v-7.11h1.46ZM93.951 18h-1.548l.01-1.143h1.538c.384 0 .708-.086.972-.258.263-.176.462-.432.595-.767.137-.335.205-.74.205-1.216v-.346c0-.365-.039-.686-.117-.962a1.912 1.912 0 0 0-.337-.699 1.409 1.409 0 0 0-.551-.424 1.823 1.823 0 0 0-.752-.147h-1.592v-1.147h1.592c.475 0 .91.081 1.303.244.397.16.74.389 1.03.688.29.3.513.658.67 1.075.16.413.239.873.239 1.381v.337c0 .505-.08.965-.24 1.382a3.08 3.08 0 0 1-.668 1.074c-.287.297-.63.526-1.03.689-.398.16-.837.239-1.319.239Zm-.718-7.11V18h-1.465v-7.11h1.465Zm8.472 1.216L99.772 18h-1.558l2.642-7.11h.991l-.142 1.216ZM103.312 18l-1.939-5.894-.156-1.215h1.001L104.874 18h-1.562Zm-.088-2.646V16.5h-3.755v-1.148h3.755Zm6.661.786c0-.127-.02-.241-.059-.342a.647.647 0 0 0-.205-.283 1.808 1.808 0 0 0-.425-.26 5.945 5.945 0 0 0-.708-.263 9.02 9.02 0 0 1-.918-.351 3.77 3.77 0 0 1-.761-.454 2.036 2.036 0 0 1-.518-.61 1.679 1.679 0 0 1-.186-.806c0-.297.066-.565.196-.806.13-.244.312-.453.547-.625.234-.176.511-.311.83-.405a3.753 3.753 0 0 1 1.059-.142c.524 0 .982.094 1.372.283.391.189.694.448.909.776.218.33.327.705.327 1.128h-1.455c0-.208-.044-.39-.132-.546a.894.894 0 0 0-.391-.376c-.172-.091-.39-.137-.654-.137-.254 0-.466.039-.635.117a.85.85 0 0 0-.381.308.762.762 0 0 0-.127.43c0 .12.03.229.088.326a.988.988 0 0 0 .274.274c.12.085.268.164.444.24.176.074.379.147.61.219.388.117.728.249 1.021.395.296.147.543.311.742.494.199.182.348.389.449.62.101.23.152.493.152.786 0 .31-.061.586-.181.83s-.295.45-.523.62c-.227.17-.499.298-.815.386a3.952 3.952 0 0 1-1.06.132c-.351 0-.698-.046-1.04-.137a3.165 3.165 0 0 1-.932-.425 2.138 2.138 0 0 1-.664-.723c-.166-.293-.249-.64-.249-1.04h1.469c0 .222.035.409.103.562a.932.932 0 0 0 .288.371c.127.095.277.163.449.205.176.042.368.064.576.064.254 0 .463-.036.625-.108a.773.773 0 0 0 .367-.298.782.782 0 0 0 .122-.43Zm6.001-4.034L113.953 18h-1.558l2.642-7.11h.991l-.142 1.216ZM117.493 18l-1.939-5.894-.156-1.215h1.001L119.055 18h-1.562Zm-.088-2.646V16.5h-3.755v-1.148h3.755Z" fill="#000" fill-opacity=".6"/><path d="M75.336 28.14a.94.94 0 0 0-.059-.342.646.646 0 0 0-.205-.283 1.819 1.819 0 0 0-.425-.26 5.985 5.985 0 0 0-.708-.263 8.967 8.967 0 0 1-.917-.351 3.77 3.77 0 0 1-.762-.454 2.046 2.046 0 0 1-.518-.61 1.682 1.682 0 0 1-.185-.807c0-.296.065-.564.195-.805.13-.244.313-.453.547-.625a2.6 2.6 0 0 1 .83-.405 3.758 3.758 0 0 1 1.06-.142c.524 0 .98.094 1.372.283.39.189.693.448.908.776.218.33.327.705.327 1.128H75.34c0-.208-.044-.39-.132-.546a.893.893 0 0 0-.39-.376c-.173-.091-.391-.137-.655-.137-.254 0-.465.039-.635.117a.847.847 0 0 0-.38.308.758.758 0 0 0-.127.43c0 .12.029.229.087.326a.99.99 0 0 0 .274.274c.12.085.268.164.444.24.176.074.38.147.61.219.388.117.728.249 1.021.395.296.147.544.311.742.494.199.182.349.389.45.62.1.23.15.493.15.786 0 .31-.06.586-.18.83s-.294.45-.522.62c-.228.17-.5.298-.816.386a3.949 3.949 0 0 1-1.06.132c-.35 0-.698-.046-1.04-.137a3.158 3.158 0 0 1-.932-.425 2.142 2.142 0 0 1-.664-.723c-.166-.293-.25-.64-.25-1.04h1.47c0 .222.035.409.103.562a.938.938 0 0 0 .288.371c.127.095.277.163.45.205.175.042.367.064.576.064.254 0 .462-.036.625-.108a.771.771 0 0 0 .366-.298.78.78 0 0 0 .122-.43Zm5.502-4.034L78.904 30h-1.558l2.642-7.11h.991l-.141 1.216ZM82.444 30l-1.939-5.894-.156-1.215h1.001L84.006 30h-1.562Zm-.088-2.646V28.5h-3.755v-1.148h3.755Zm3.129-4.463h1.24l1.826 5.22 1.826-5.22h1.24L89.05 30h-.996l-2.568-7.11Zm-.67 0h1.236l.225 5.088V30h-1.46v-7.11Zm6.236 0h1.24V30h-1.465v-2.021l.225-5.088Zm6.376 5.249c0-.127-.02-.241-.059-.342a.646.646 0 0 0-.205-.283 1.819 1.819 0 0 0-.425-.26 5.985 5.985 0 0 0-.708-.263 8.967 8.967 0 0 1-.918-.351 3.772 3.772 0 0 1-.762-.454 2.047 2.047 0 0 1-.517-.61 1.682 1.682 0 0 1-.186-.807c0-.296.065-.564.196-.805.13-.244.312-.453.546-.625.235-.176.511-.311.83-.405a3.758 3.758 0 0 1 1.06-.142c.524 0 .981.094 1.372.283.39.189.694.448.908.776.219.33.328.705.328 1.128H97.43c0-.208-.043-.39-.131-.546a.892.892 0 0 0-.391-.376c-.172-.091-.39-.137-.654-.137-.254 0-.466.039-.635.117a.847.847 0 0 0-.38.308.757.757 0 0 0-.128.43c0 .12.03.229.088.326a.99.99 0 0 0 .273.274c.12.085.269.164.445.24.176.074.379.147.61.219a6.48 6.48 0 0 1 1.02.395c.297.147.544.311.743.494.198.182.348.389.449.62.101.23.151.493.151.786 0 .31-.06.586-.18.83s-.295.45-.523.62c-.228.17-.5.298-.815.386a3.95 3.95 0 0 1-1.06.132c-.351 0-.698-.046-1.04-.137a3.16 3.16 0 0 1-.932-.425 2.141 2.141 0 0 1-.664-.723c-.167-.293-.25-.64-.25-1.04h1.47c0 .222.034.409.103.562a.939.939 0 0 0 .288.371c.127.095.277.163.45.205.175.042.367.064.575.064.254 0 .462-.036.625-.108a.771.771 0 0 0 .367-.298.779.779 0 0 0 .122-.43Zm5.501-4.034L100.995 30h-1.558l2.642-7.11h.991l-.142 1.216ZM104.535 30l-1.939-5.894-.156-1.215h1.001L106.097 30h-1.562Zm-.088-2.646V28.5h-3.755v-1.148h3.755Zm2.459-4.463h2.652c.543 0 1.01.081 1.401.244.394.162.697.403.908.722.212.32.318.712.318 1.177 0 .381-.066.708-.196.982-.127.27-.307.496-.542.678-.231.18-.503.323-.815.43l-.464.244h-2.305l-.009-1.142h1.713c.258 0 .471-.046.64-.137a.9.9 0 0 0 .381-.381c.088-.163.132-.352.132-.566 0-.228-.043-.425-.127-.591a.857.857 0 0 0-.386-.381 1.421 1.421 0 0 0-.649-.132h-1.187V30h-1.465v-7.11ZM110.881 30l-1.621-3.169 1.548-.01 1.64 3.11V30h-1.567Zm5.472-5.894L114.42 30h-1.558l2.642-7.11h.991l-.142 1.216ZM117.96 30l-1.939-5.894-.156-1.215h1.001L119.522 30h-1.562Zm-.088-2.646V28.5h-3.755v-1.148h3.755Z" fill="#263238" fill-opacity=".8"/><path d="M73.192 35.89V43h-1.46v-7.11h1.46Zm6.659 0V43h-1.465l-2.857-4.766V43h-1.465v-7.11h1.465l2.862 4.771v-4.77h1.46ZM82.808 43H81.26l.01-1.143h1.538c.384 0 .708-.086.971-.258a1.6 1.6 0 0 0 .596-.767c.137-.335.205-.74.205-1.216v-.346c0-.365-.039-.686-.117-.962a1.914 1.914 0 0 0-.337-.699 1.41 1.41 0 0 0-.552-.424 1.822 1.822 0 0 0-.752-.147h-1.591v-1.147h1.591c.475 0 .91.081 1.304.244.397.16.74.389 1.03.688.29.3.513.658.67 1.075.159.413.239.873.239 1.381v.337c0 .505-.08.965-.24 1.382a2.968 2.968 0 0 1-1.7 1.763c-.396.16-.836.239-1.317.239Zm-.718-7.11V43h-1.465v-7.11h1.465Zm10.379 3.39v.336c0 .54-.073 1.026-.22 1.455a3.2 3.2 0 0 1-.62 1.099c-.267.3-.586.529-.957.688a3.05 3.05 0 0 1-1.226.24c-.446 0-.854-.08-1.225-.24a2.747 2.747 0 0 1-.957-.688 3.216 3.216 0 0 1-.63-1.099 4.494 4.494 0 0 1-.22-1.455v-.337c0-.543.073-1.028.22-1.455a3.2 3.2 0 0 1 .62-1.098c.27-.303.59-.534.957-.694.371-.16.78-.239 1.225-.239.45 0 .858.08 1.226.24.371.159.69.39.957.693.27.302.479.669.625 1.098.15.427.225.912.225 1.455Zm-1.48.336v-.346c0-.378-.034-.71-.102-.997a2.16 2.16 0 0 0-.303-.722 1.308 1.308 0 0 0-.488-.44 1.396 1.396 0 0 0-.66-.151c-.247 0-.467.05-.659.151a1.32 1.32 0 0 0-.483.44c-.13.195-.23.436-.298.722a4.318 4.318 0 0 0-.102.996v.347c0 .375.034.707.102.996.069.287.17.53.303.728.133.195.296.343.488.444.192.101.412.151.66.151.247 0 .466-.05.659-.15.192-.102.353-.25.483-.445.13-.199.23-.441.298-.728.068-.29.102-.621.102-.996Zm7.82-3.725V43h-1.464l-2.857-4.766V43h-1.465v-7.11h1.465l2.862 4.771v-4.77h1.46Zm5.545 5.966V43h-3.784v-1.143h3.784Zm-3.305-5.966V43h-1.465v-7.11h1.465Zm2.812 2.895V39.9h-3.291v-1.113h3.291Zm.489-2.895v1.147h-3.78v-1.147h3.78Zm4.06 5.249a.942.942 0 0 0-.058-.342.65.65 0 0 0-.206-.283 1.8 1.8 0 0 0-.424-.26 6.081 6.081 0 0 0-.708-.263 8.844 8.844 0 0 1-.918-.351 3.75 3.75 0 0 1-.762-.454 2.05 2.05 0 0 1-.518-.61 1.69 1.69 0 0 1-.185-.806c0-.297.065-.565.195-.806.13-.244.313-.453.547-.625.234-.176.511-.311.83-.405a3.76 3.76 0 0 1 1.06-.142c.524 0 .981.094 1.372.283.39.189.693.448.908.776.218.33.327.705.327 1.129h-1.455c0-.209-.044-.391-.132-.547a.891.891 0 0 0-.39-.376c-.173-.091-.391-.137-.655-.137-.254 0-.465.039-.634.117a.84.84 0 0 0-.381.308.755.755 0 0 0-.127.43c0 .12.029.229.088.326a.983.983 0 0 0 .273.274c.12.085.269.164.444.24.176.074.38.147.611.219.387.117.727.249 1.02.395.296.147.544.311.742.494.199.182.349.389.45.62.101.23.151.493.151.786 0 .31-.06.586-.181.83-.12.244-.294.45-.522.62-.228.17-.5.298-.816.386a3.94 3.94 0 0 1-1.059.132c-.352 0-.698-.046-1.04-.137a3.16 3.16 0 0 1-.933-.425 2.148 2.148 0 0 1-.664-.723c-.166-.293-.249-.64-.249-1.04h1.47c0 .222.034.409.102.562a.95.95 0 0 0 .288.371c.127.094.277.163.45.205.175.042.368.064.576.064.254 0 .462-.036.625-.108a.77.77 0 0 0 .366-.298.782.782 0 0 0 .122-.43Zm3.519-5.25V43h-1.46v-7.11h1.46Zm3.85 1.216L113.846 43h-1.558l2.642-7.11h.991l-.142 1.216ZM117.386 43l-1.939-5.894-.156-1.215h1.001L118.948 43h-1.562Zm-.088-2.647v1.148h-3.755v-1.148h3.755Z" fill="#263238"/></svg>