<svg width="453" height="430" fill="none" xmlns="http://www.w3.org/2000/svg"><path d="M303.834 312.856c-1.365-1.513 1.853-10.348 17.125-10.973 15.271-.626 21.389 4.935 21.411 10.973.012 2.672-38.536 0-38.536 0Z" fill="#455A64"/><path d="m296.295 81.706-16.966 104.92h154.942L452.942 80.58l-156.647 1.126Z" fill="#F5F5F5"/><path d="M294.748 91.246c.069-.364 156.42-.591 156.42-.591l1.774-10.075-156.647 1.137-1.547 9.552" fill="#E0E0E0"/><path d="M302.845 86.424a1.448 1.448 0 0 1-.884 1.343 1.443 1.443 0 1 1-.56-2.775 1.43 1.43 0 0 1 1.333.882c.073.174.111.361.111.55ZM309.895 86.424a1.429 1.429 0 0 1-.885 1.324 1.434 1.434 0 1 1 .885-1.324ZM316.956 86.424a1.44 1.44 0 0 1-.883 1.343 1.447 1.447 0 0 1-1.977-1.045 1.45 1.45 0 0 1 .612-1.486c.238-.16.518-.244.804-.244a1.434 1.434 0 0 1 1.444 1.432Z" fill="#263238"/><path d="m334.456 138.379-19.388 22.423a27.521 27.521 0 0 1-12.064-22.366c0-15.59 14.202-28.428 31.452-28.428s31.452 12.826 31.452 28.428l-31.452-.057Z" fill="#EE4248"/><path d="M336.946 141.938a2.692 2.692 0 0 1-.329.443l-1.012 1.206-3.844 4.548c-3.343 3.912-8.096 9.438-13.793 16.09v-.364a31.497 31.497 0 0 0 14.441 5.367 33.198 33.198 0 0 0 17.171-2.592 31.055 31.055 0 0 0 12.86-10.382 28.94 28.94 0 0 0 3.514-6.88 28.14 28.14 0 0 0 1.353-7.038l.25.261-22.173-.375-6.232-.136-1.648-.057a3.122 3.122 0 0 1-.58 0c.181-.018.364-.018.545 0h7.824l22.264.148h.273v.273a27.875 27.875 0 0 1-1.342 7.197 29.188 29.188 0 0 1-3.559 7.028 31.414 31.414 0 0 1-13.156 10.632 33.882 33.882 0 0 1-17.477 2.615 32.015 32.015 0 0 1-14.669-5.526l-.227-.16.181-.216 14.032-15.999 3.923-4.434 1.046-1.137c.107-.181.228-.353.364-.512ZM347.828 123.255a1.762 1.762 0 1 0 .001-3.525 1.762 1.762 0 0 0-.001 3.525Z" fill="#263238"/><path d="M384.602 108.598a9.808 9.808 0 0 1-1.66.114l-4.548.091c-3.81 0-9.097.091-14.885.091h-2.774l.204-.08a852.374 852.374 0 0 1-9.256 9.097l-2.786 2.661a5.768 5.768 0 0 1-1.069.909c.276-.378.585-.732.921-1.057.694-.739 1.592-1.672 2.661-2.786 2.274-2.354 5.481-5.606 9.097-9.267l.08-.08h2.99c5.811 0 11.076 0 14.885.08l4.548.102a8.402 8.402 0 0 1 1.592.125Z" fill="#263238"/><path d="M424.537 130.749c.008-.203.034-.405.08-.603.068-.409.159-.966.284-1.683l1.137-6.356 4.105-22.81.239.284-44.04.057.284-.24v.512l-.102.524-.193 1.057-.387 2.092c-.262 1.388-.512 2.764-.773 4.128-.501 2.729-.997 5.413-1.49 8.051-.989 5.253-1.933 10.234-2.808 15.021l-.273-.319 31.725.126 9.097.079h3.274H421.524l-9.006.068-31.839.125h-.318l.057-.318c.875-4.742 1.796-9.779 2.774-15.044.478-2.627.978-5.31 1.478-8.039.262-1.376.512-2.752.774-4.139a171 171 0 0 1 .386-2.092l.194-1.047.091-.523.056-.273V99.16l.296-.25 44.04.057h.159l-.057.284c-1.819 9.518-3.32 17.375-4.366 22.89-.535 2.695-.944 4.81-1.24 6.299l-.329 1.626a7.996 7.996 0 0 1-.137.683ZM350.592 158.71a1.762 1.762 0 1 0 0-3.524 1.762 1.762 0 0 0 0 3.524Z" fill="#263238"/><path d="M382.59 156.948c0 .17-7.164.295-15.999.295-8.836 0-16-.125-16-.295 0-.171 7.164-.296 16-.296 8.835 0 15.999.136 15.999.296Z" fill="#263238"/><path d="M424.537 170.684c.014-.146.041-.291.08-.432a241.817 241.817 0 0 1 1.421-5.856c.99-4.026 2.4-9.768 4.139-16.83l.216.273-45.416.069.285-.216v.352l-.103.387-.193.75-.375 1.524a274.915 274.915 0 0 0-.762 3.002l-1.615 5.958c-.978 3.855-1.921 7.585-2.831 11.144l-.262-.341 32.578.125 9.416.068H424.537h-3.309l-9.369.068-32.738.125h-.363l.09-.352c.899-3.559 1.831-7.3 2.798-11.155.485-1.933.981-3.893 1.489-5.879l.751-3.002.386-1.512.194-.762.091-.387v-.352l.284-.228 45.416.08h.409l-.068.273c-1.842 7.095-3.332 12.86-4.378 16.897-.523 1.945-.932 3.48-1.217 4.549-.136.489-.238.875-.318 1.137-.08.261-.148.534-.148.523ZM420.955 108.996c0 .171-6.743.296-15.066.296-8.324 0-15.067-.125-15.067-.296 0-.171 6.743-.296 15.067-.296 8.323 0 15.066.137 15.066.296ZM420.603 113.931c0 .171-6.823.296-15.146.296-8.324 0-15.158-.125-15.158-.296 0-.171 6.823-.296 15.158-.296 8.335 0 15.146.137 15.146.296ZM419.727 118.73c0 .159-6.549.295-14.623.295-8.073 0-14.634-.136-14.634-.295 0-.16 6.549-.296 14.634-.296s14.623.091 14.623.296Z" fill="#263238"/><path d="M420.25 156.402c0 .159-6.424.295-14.361.295s-14.362-.136-14.362-.295c0-.159 6.436-.296 14.362-.296 7.925 0 14.361.148 14.361.296ZM418.488 161.86c0 .17-5.481.296-12.247.296-6.765 0-12.246-.126-12.246-.296 0-.171 5.481-.296 12.246-.296 6.766 0 12.247.137 12.247.296Z" fill="#263238"/><path d="M235.471 276.105c-.546 3.195-15.715 36.762-5.924 36.762h49.214s-5.083-4.776 10.302-36.762h-53.592Z" fill="#455A64"/><path d="M203.632 164.066 183.517 281.62h169.667l20.809-121.682-170.361 4.128Z" fill="#455A64"/><path d="m209.398 169.797-16.955 104.932h154.931l18.671-106.047-156.647 1.115Z" fill="#FAFAFA"/><path d="m373.993 159.938 3.207 2.161-21.605 122.716H187.997l-4.48-3.195h169.667l20.809-121.682Z" fill="#263238"/><path d="M207.862 179.348c.057-.375 156.409-.591 156.409-.591l1.774-10.075-156.647 1.138-1.536 9.551" fill="#EBEBEB"/><path d="M322.96 265.416v-.296l.136-.875c.144-.834.338-1.971.58-3.412.535-3.059 1.285-7.448 2.218-12.894 1.933-11.03 4.628-26.381 7.686-43.802v-.25h12.804l-.057.353c-4.741 25.687-8.892 48.258-11.291 61.233v.136h-.125l-8.915-.091h-2.831 2.967l8.813-.091-.159.125 11.007-61.278.296.341h-12.19l.284-.239c-3.15 17.318-5.913 32.567-7.96 43.54-1 5.458-1.819 9.858-2.388 12.929-.284 1.489-.5 2.66-.659 3.502-.08.375-.137.682-.182.91a2.254 2.254 0 0 1-.034.159ZM303.311 265.416c.015-.277.057-.551.125-.819.102-.603.25-1.41.432-2.433.409-2.195.978-5.299 1.694-9.097 1.49-7.88 3.571-18.842 5.947-31.373v-.239h12.804l-.068.353c-3.593 17.818-6.823 33.658-8.824 43.699v.148h-.148l-8.903-.103h-2.275a5.684 5.684 0 0 1-.761 0H306.54l8.779-.102-.182.148c1.978-10.052 5.094-25.903 8.596-43.745l.284.353h-12.258l.285-.228c-2.468 12.418-4.628 23.288-6.186 31.1-.785 3.878-1.41 6.993-1.865 9.188l-.512 2.49c0 .262-.113.478-.147.648l-.023.012ZM283.582 265.416a2.212 2.212 0 0 1 0-.364l.182-1.137c.171-1.001.409-2.434.728-4.276.659-3.763 1.603-9.187 2.786-15.919 2.41-13.645 5.765-32.533 9.563-53.944v-.239h12.803l-.056.341c-5.936 32.51-11.178 60.835-13.953 75.538v.125h-.125l-8.949-.091h-3.024 3.138l8.847-.08-.137.114c2.593-14.782 7.71-43.085 13.645-75.583l.296.352H297.17l.285-.25a63419.816 63419.816 0 0 1-9.791 53.671c-1.251 6.755-2.274 12.201-2.956 15.977l-.819 4.332c-.091.478-.159.853-.216 1.137l-.091.296ZM263.887 265.416c.009-.191.032-.381.069-.569.079-.443.17-1 .284-1.705.261-1.57.637-3.753 1.137-6.471.989-5.628 2.365-13.44 3.946-22.469v-.238h12.792l-.068.352c-2.354 12.281-4.469 23.333-5.97 31.145v.171h-.159l-8.869-.114-2.4-.102a6.409 6.409 0 0 1-.784 0h3.263l8.733-.114-.205.159c1.456-7.812 3.514-18.887 5.788-31.179l.296.352h-12.178l.272-.227c-1.682 8.926-3.127 16.647-4.184 22.208-.523 2.729-.955 4.935-1.262 6.515-.148.717-.262 1.308-.353 1.751-.039.181-.088.36-.148.535ZM244.181 265.416v-.239c0-.159 0-.443.103-.739.114-.694.261-1.649.455-2.877.42-2.558 1.012-6.22 1.751-10.768 1.546-9.256 3.684-22.128 6.129-36.786v-.238h12.804l-.069.352c-3.752 21.184-7.061 39.912-9.096 51.329v.148h-.137l-8.892-.103h-2.331a5.699 5.699 0 0 1-.762 0H247.331l8.79-.091-.17.137 8.846-51.374.296.352H252.96l.284-.239c-2.536 14.555-4.764 27.291-6.368 36.513-.818 4.548-1.466 8.244-1.933 10.825-.227 1.239-.398 2.274-.534 2.922l-.148.773-.08.103ZM224.51 265.416a1.216 1.216 0 0 1 0-.33c0-.25.091-.58.159-1.001.159-.921.375-2.274.659-3.911.58-3.412 1.433-8.403 2.479-14.567 2.161-12.451 5.174-29.78 8.585-49.395v-.239h12.804l-.057.352c-5.299 29.474-9.984 55.241-12.565 69.125v.125h-.125l-8.926-.091H224.703h2.934l8.835-.091-.148.125c2.411-13.918 6.982-39.707 12.281-69.17l.284.341h-12.178l.284-.238c-3.491 19.512-6.584 36.739-8.801 49.122-1.137 6.186-2.036 11.155-2.672 14.612-.307 1.706-.558 3.025-.728 3.969-.091.432-.148.773-.205 1.034-.057.262-.079.228-.079.228ZM215.947 174.527a1.443 1.443 0 1 1-2.886.024 1.443 1.443 0 0 1 2.886-.024ZM221.564 175.96a1.433 1.433 0 1 0 0-2.866 1.433 1.433 0 0 0 0 2.866ZM230.059 174.527a1.447 1.447 0 0 1-.887 1.343 1.446 1.446 0 0 1-1.974-1.053 1.434 1.434 0 0 1 .085-.836 1.438 1.438 0 0 1 1.343-.887 1.445 1.445 0 0 1 1.433 1.433ZM204.815 265.416s0-.296.125-.876c.125-.58.239-1.489.421-2.581.398-2.274.955-5.606 1.649-9.688 1.455-8.346 3.468-19.945 5.776-33.181v-.239h12.804l-.068.353c-3.514 18.944-6.641 35.75-8.586 46.257v.148h-.136l-8.904-.102h-2.274a6.23 6.23 0 0 1-.773 0h3.207l8.789-.103-.181.148 8.357-46.291.285.341H213.07l.285-.239c-2.4 13.134-4.549 24.641-6.004 32.908-.774 4.105-1.388 7.414-1.831 9.733-.205 1.138-.375 2.002-.5 2.639l-.137.693a1.027 1.027 0 0 1-.068.08Z" fill="#263238"/><path d="M337.731 219.147h-64.906l3.707-21.787h65.361l-4.162 21.787Z" fill="#EE4248"/><path d="m272.825 219.147-1.262 7.607s8.528-7.903 8.392-7.903h-7.073" fill="#EE4248"/><path d="M332.102 204.933c0 .16-10.814.296-24.14.296-13.327 0-24.152-.136-24.152-.296 0-.159 10.813-.295 24.152-.295 13.338 0 24.14.136 24.14.295ZM331.465 210.198c0 .159-10.813.296-24.14.296s-24.152-.137-24.152-.296c0-.159 10.814-.296 24.152-.296 13.338 0 24.14.126 24.14.296Z" fill="#FAFAFA"/><path d="M437.625 320.395H252.71v107.899h184.915V320.395Z" fill="#263238"/><path d="M336.946 320.395H252.71v107.899h84.236V320.395Z" fill="#455A64"/><path d="M328.327 357.044v-2.115c0-1.399 0-3.412-.057-5.993 0-5.185-.057-12.656-.114-21.866l.216.216-67.76.079c-.261.273.353-.352.296-.284v29.963l-.273-.273 48.566.125 14.089.079h5.105a1.432 1.432 0 0 1-.307 0h-4.673l-14.021.08-48.759.136h-.284v-30.11c-.068 0 .557-.569.296-.307l67.68.045h.216v.205c0 9.267-.091 16.772-.114 22.003 0 2.558 0 4.548-.057 5.936v1.535a3.7 3.7 0 0 1-.045.546Z" fill="#263238"/><path d="M297.364 342.056s-.068-.25-.205-.67a2.878 2.878 0 0 0-1.057-1.445 2.659 2.659 0 0 0-2.513-.329 2.613 2.613 0 0 0-1.235 3.942c.304.438.735.772 1.235.959a2.725 2.725 0 0 0 2.513-.33 2.88 2.88 0 0 0 1.057-1.444c.137-.421.148-.683.205-.683.057 0 .091.262 0 .74a2.925 2.925 0 0 1-1.035 1.717 3.063 3.063 0 0 1-2.945.511 3.14 3.14 0 0 1-1.523-4.778c.377-.53.909-.931 1.523-1.146a3.1 3.1 0 0 1 2.945.5 2.936 2.936 0 0 1 1.035 1.729c.091.477.034.739 0 .727ZM328.327 390.042V387.916c0-1.399 0-3.411-.057-5.981 0-5.197-.057-12.656-.113-21.867l.216.216-67.76.08.295-.296v29.951l-.273-.284 48.566.137 14.089.079h4.764c.114-.009.228-.009.341 0h-4.98l-14.021.08-48.759.136h-.284v-30.076l.296-.296 67.76.08h.216v.216c0 9.267-.091 16.772-.114 21.992 0 2.558 0 4.548-.057 5.947v1.523a3.894 3.894 0 0 1-.125.489Z" fill="#263238"/><path d="M297.364 375.055s-.068-.261-.205-.682a2.872 2.872 0 0 0-1.057-1.444 2.729 2.729 0 0 0-2.513-.33 2.613 2.613 0 0 0-1.235 3.942 2.686 2.686 0 0 0 2.531 1.113 2.69 2.69 0 0 0 1.217-.472c.5-.359.871-.869 1.057-1.456.137-.421.148-.671.205-.671.057 0 .091.262 0 .728a2.905 2.905 0 0 1-1.035 1.728 3.058 3.058 0 0 1-2.945.501 3.142 3.142 0 0 1-2.102-2.962 3.14 3.14 0 0 1 2.102-2.963 3.063 3.063 0 0 1 2.945.512c.54.435.907 1.048 1.035 1.728.091.467.034.728 0 .728ZM328.327 423.03v-2.115c0-1.399 0-3.412-.057-5.993 0-5.185-.057-12.656-.114-21.866l.216.216-67.76.079c-.261.273.353-.352.296-.284v29.963l-.273-.273 48.566.125 14.089.079h5.105a1.432 1.432 0 0 1-.307 0h-4.673l-14.021.069-48.759.136h-.284v-30.099c-.068.057.557-.569.296-.307l67.76.091h.216v.205c0 9.267-.091 16.783-.114 22.003 0 2.558 0 4.548-.057 5.935v1.535c-.03.17-.072.337-.125.501Z" fill="#263238"/><path d="M297.364 408.043s-.068-.251-.205-.671a2.872 2.872 0 0 0-1.057-1.444 2.693 2.693 0 0 0-2.513-.33 2.613 2.613 0 0 0-1.235 3.942c.304.438.735.772 1.235.959a2.701 2.701 0 0 0 2.513-.33 2.88 2.88 0 0 0 1.057-1.444c.137-.421.148-.682.205-.682.057 0 .091.261 0 .739a2.968 2.968 0 0 1-1.035 1.728 3.091 3.091 0 0 1-2.945.5 3.14 3.14 0 0 1-1.523-4.778c.377-.53.909-.931 1.523-1.146a3.1 3.1 0 0 1 2.945.5 2.936 2.936 0 0 1 1.035 1.729c.091.477.034.739 0 .728ZM161.514 320.395H5.97v107.899h155.544V320.395Z" fill="#263238"/><path d="M444.323 312.867H0v10.257h444.323v-10.257Z" fill="#263238"/><path d="M19.752 323.124H5.97v105.17h13.782v-105.17Z" fill="#455A64"/><path d="M178.718 150.568a10.669 10.669 0 0 1-.193-1.307 9.314 9.314 0 0 0-1.137-3.321 3.882 3.882 0 0 0-1.66-1.592 2.18 2.18 0 0 0-2.377.444 9.199 9.199 0 0 0 0 11.542 2.175 2.175 0 0 0 2.377.454 3.965 3.965 0 0 0 1.66-1.603 9.316 9.316 0 0 0 1.137-3.32c.037-.436.101-.869.193-1.297.074.441.074.89 0 1.331a8.594 8.594 0 0 1-.989 3.502 4.364 4.364 0 0 1-1.831 1.831 2.522 2.522 0 0 1-1.489.216 3.129 3.129 0 0 1-1.433-.694 9.55 9.55 0 0 1 0-12.371 3.033 3.033 0 0 1 1.433-.705 2.604 2.604 0 0 1 1.489.216 4.362 4.362 0 0 1 1.831 1.83 8.582 8.582 0 0 1 .989 3.514c.073.44.073.89 0 1.33Z" fill="#263238"/><path d="m129.63 128.338-3.412 68.135 29.269 2.752 1.615-16.545s10.234 2.547 13.418-6.97c1.99-6.084 3.764-53.717 3.764-53.717l-44.654 6.345Z" fill="#FFBE9D"/><path d="M180.504 129.02c-2.491 5.925-11.883 11.007-11.883 11.007l-1.535 15.09a30.288 30.288 0 0 0-4.196 0c.75-7.084-8.358-5.686-9.29-.876-.887 4.64 4.4 7.744 4.4 7.744-3.65 5.594-5.128 8.551-10.313 13.793-5.595 5.685-8.608 6.14-14.396 5.97l-6.379-.296s-2.274-5.447-3.923-18.307c-.807-6.186-5.685-14.294-4.264-24.357 3.912-28.575 35.534-23.504 35.534-23.504 11.872-9.233 32.112-.193 26.245 13.736Z" fill="#263238"/><path d="M178.718 150.648a35.28 35.28 0 0 1-6.549.637 37.19 37.19 0 0 1-6.573 0 35.697 35.697 0 0 1 6.539-.626 37.986 37.986 0 0 1 6.583-.011Z" fill="#263238"/><path d="m271.961 230.689-10.632 6.583-3.9 9.097v-7.959s2.888-3.412 5.253-5.902.671-4.219 0-5.071c-.671-.853-10.848 10.973-10.848 10.973v6.822c-4.742-5.833-6.936-3.832-7.664-2.774-.728 1.057 7.664 8.971 7.664 8.971v2.411l-41.697 22.424-10.973-27.291-22.413 11.769 13.384 32.396a16.895 16.895 0 0 0 24.232 8.108l49.066-29.008 3.263-5.446a13.73 13.73 0 0 0 1.945-6.186l1.694-24.505c2.979-1.865 1.626-5.412 1.626-5.412Z" fill="#FFBE9D"/><path d="M210.341 276.298a58.317 58.317 0 0 1-4.116 11.121 60.44 60.44 0 0 1 4.116-11.121ZM270.335 236.101a19.08 19.08 0 0 1-1.933.864 6.113 6.113 0 0 0-3.195 3.639 45.238 45.238 0 0 1-3.093 6.63 45.682 45.682 0 0 1 2.547-6.823 6.926 6.926 0 0 1 1.546-2.49 6.809 6.809 0 0 1 2.013-1.297 4.831 4.831 0 0 1 2.115-.523ZM270.176 239.979a1.25 1.25 0 0 0-.899.591c-.329.637-.75 1.638-1.137 2.706a38.686 38.686 0 0 1-1.501 3.98 9.853 9.853 0 0 1 .944-4.196c.367-.957.836-1.872 1.399-2.729a1.217 1.217 0 0 1 .887-.5c.216 0 .318.114.307.148Z" fill="#EB996E"/><path d="m170.054 256.592 4.764 16.135 30.236-13.645c-1.137-3.411-6.095-18.432-15.658-42.311a41.09 41.09 0 0 0-31.35-25.267c-9.893-1.649-20.661-2.934-28.951-2.831a35.94 35.94 0 0 0-34.886 28.768c-2.559 12.679 1.922 21.06-.966 48.805l-.922 69.784 80.735 2.968-3.002-82.406Z" fill="#EE4248"/><path d="M96.995 265.507s-11.223.659-15.635-7.835c0 0 12.087-44.688 16.306-49.953l-.671 57.788Z" fill="#EE4248"/><path d="M190.92 221.273c-.289.224-.612.4-.956.524a9.702 9.702 0 0 1-3.081.579 20.304 20.304 0 0 1-4.901-.625c-1.865-.421-3.946-1.046-6.277-1.433a27.316 27.316 0 0 0-3.661-.193 23.56 23.56 0 0 0-3.923.648 33.86 33.86 0 0 0-8.153 3.411c-2.764 1.501-5.572 3.275-8.563 5.026a44.872 44.872 0 0 1-9.79 4.549 19.337 19.337 0 0 1-10.86.17 27.662 27.662 0 0 1-8.88-4.81c-2.536-1.967-4.742-4.036-6.823-5.924a58.525 58.525 0 0 0-6.027-4.912 23.343 23.343 0 0 0-10.234-4.344 36.704 36.704 0 0 0-4.116 0 4.16 4.16 0 0 1 1.046-.273 14.19 14.19 0 0 1 3.116-.148 22.647 22.647 0 0 1 10.621 4.117 54.595 54.595 0 0 1 6.208 4.878c2.115 1.865 4.344 3.889 6.823 5.776a26.932 26.932 0 0 0 8.539 4.549 18.39 18.39 0 0 0 10.234-.194 45.264 45.264 0 0 0 9.541-4.4c2.967-1.717 5.799-3.491 8.619-4.992a34.356 34.356 0 0 1 8.448-3.411 23.956 23.956 0 0 1 4.117-.614c1.282.013 2.562.112 3.832.295 2.411.455 4.469 1.137 6.299 1.615 1.545.445 3.136.712 4.742.796a13.274 13.274 0 0 0 4.06-.66ZM170.588 276.957a14.187 14.187 0 0 0-5.014-1.819 16.853 16.853 0 0 0-5.777.318c-2.16.432-4.491 1.217-7.05 1.854a28.424 28.424 0 0 1-13.406.182c-3.412-.796-5.242-1.876-5.186-1.99.057-.114 2.036.603 5.356 1.137a31.36 31.36 0 0 0 12.952-.512c2.49-.625 4.867-1.387 7.129-1.785a16.328 16.328 0 0 1 6.118-.068 9.747 9.747 0 0 1 3.821 1.569c.796.625 1.114 1.069 1.057 1.114ZM171.407 318.621s-.307.512-1.069 1.228a16.569 16.569 0 0 1-3.661 2.536 14.592 14.592 0 0 1-6.448 1.637 21.373 21.373 0 0 1-7.96-1.774c-2.649-1.035-5.071-2.194-7.357-2.843a17.508 17.508 0 0 0-6.242-.727 9.78 9.78 0 0 0-4.026 1.137c-.887.489-1.296.887-1.375.807-.08-.079.272-.557 1.137-1.137a8.932 8.932 0 0 1 4.184-1.637 17.267 17.267 0 0 1 6.618.511 72.102 72.102 0 0 1 7.505 2.798 21.692 21.692 0 0 0 7.493 1.785 14.51 14.51 0 0 0 6.084-1.308c3.354-1.512 5.003-3.184 5.117-3.013Z" fill="#263238"/><path opacity=".3" d="M83.85 266.291c10.575 2.161 21.434 0 32.203-.659 6.538-.387 13.781-1.137 18.944 2.922 4.093 3.184 5.685 8.54 6.925 13.589 4.548 19.262 5.333 36.466 6.345 56.218l-52.307-1.137-12.11-70.933ZM97.666 230.029l2.263 32.612h-6.891l4.628-32.612Z" fill="#000"/><path d="m112.357 335.984 103.818 3.673a30.951 30.951 0 0 1 29.86 31.43l-.91 58.913h-38.07l-2.456-50.794-92.242-2.434v-40.788Z" fill="#263238"/><path d="M147.175 389.849h-10.211v37.376h10.211v-37.376ZM51.283 271.101v90.059a21.389 21.389 0 0 0 21.39 21.377h59.97V271.101a9.537 9.537 0 0 0-9.54-9.529h-62.29a9.53 9.53 0 0 0-9.53 9.529Z" fill="#455A64"/><path d="M213.355 389.849H67.305a15.921 15.921 0 0 1 15.92-15.851H197.56c4.204 0 8.236 1.67 11.209 4.642a15.855 15.855 0 0 1 4.642 11.209h-.056Z" fill="#455A64"/><path d="M132.643 371.894c.066.89-.01 1.784-.227 2.65a10.781 10.781 0 0 1-8.54 8.073c-.928.151-1.868.215-2.809.193H81.12l-7.22-.091h-1.967a2.61 2.61 0 0 1-.682-.068c.225-.036.454-.055.682-.057l1.967-.057 7.22-.102 23.88-.114h16.067c.913.035 1.827-.018 2.729-.159a10.23 10.23 0 0 0 4.401-1.899 10.666 10.666 0 0 0 3.946-5.754c.477-1.66.42-2.626.5-2.615ZM151.019 390.156c-2.973.3-5.963.398-8.949.296-2.99.103-5.984.004-8.961-.296a68.918 68.918 0 0 1 8.961-.296 68.74 68.74 0 0 1 8.949.296Z" fill="#263238"/><path d="M195.457 383.333a4.36 4.36 0 0 1-.273-1.137 98.442 98.442 0 0 1-.569-3.195 576.433 576.433 0 0 1-1.865-11.78c-.409-2.479-.739-5.242-1.285-8.119-.147-.717-.284-1.444-.432-2.195-.148-.75-.432-1.455-.648-2.206-.114-.364-.216-.75-.33-1.137-.113-.387-.284-.739-.432-1.137-.307-.751-.58-1.512-.909-2.274a41.361 41.361 0 0 0-5.436-8.699 39.18 39.18 0 0 0-8.176-7.369 36.5 36.5 0 0 0-9.915-4.775 37.26 37.26 0 0 0-10.109-1.729c-6.618-.148-12.645-.114-17.67-.182-5.026-.068-9.097-.125-11.917-.193-1.41 0-2.502-.068-3.252-.114a4.4 4.4 0 0 1-1.138-.113 4.042 4.042 0 0 1 1.138-.126l3.252-.113c2.808-.069 6.891-.125 11.917-.182 5.025-.057 11.018-.159 17.704-.068 3.54.075 7.051.653 10.427 1.717a36.552 36.552 0 0 1 10.234 4.9 39.196 39.196 0 0 1 8.415 7.608 42.08 42.08 0 0 1 5.538 8.994c.329.773.602 1.569.909 2.331.137.387.285.762.432 1.137.148.376.216.774.33 1.137.216.774.421 1.524.626 2.275.204.75.284 1.512.42 2.274.512 2.945.785 5.685 1.137 8.164.649 4.992 1.137 9.04 1.49 11.837.159 1.399.284 2.491.352 3.23.074.409.086.827.035 1.239Z" fill="#455A64"/><path d="M11.155 274.353s-1.842 5.152 1.683 8.881h7.334s-.648-8.323-9.017-8.881Z" fill="#EE4248"/><path opacity=".4" d="M11.155 274.353s-1.842 5.152 1.683 8.881h7.334s-.648-8.323-9.017-8.881Z" fill="#000"/><path d="M23.652 263.744c-.307-.364-6.584 9.461-3.06 19.49h6.915s2.706-11.667-3.855-19.49Z" fill="#EE4248"/><path d="M35.898 274.353a8.998 8.998 0 0 0-8.392 8.881h6.903s3.024-4.253 1.49-8.881Z" fill="#EE4248"/><path d="M12.27 282.848a15.496 15.496 0 0 0-6.21 15.373c1.775 10.234 12.577 14.646 12.577 14.646h11.974s12.19-5.378 11.894-16.442c-.296-11.064-7.55-13.418-7.55-13.418l-22.686-.159Z" fill="#455A64"/><path d="M42.46 295.185a5.744 5.744 0 0 0-.99-1.239 5.365 5.365 0 0 0-3.991-1.137 14.427 14.427 0 0 0-5.856 2.547 20.486 20.486 0 0 1-3.491 1.785 8.132 8.132 0 0 1-4.219.421c-2.922-.501-5.253-2.07-7.436-3.116a10.969 10.969 0 0 0-6.14-1.478 5.82 5.82 0 0 0-3.73 1.899 7.219 7.219 0 0 0-.82 1.364c.008-.143.035-.284.08-.42.118-.409.307-.794.558-1.138a5.855 5.855 0 0 1 3.854-2.16 10.995 10.995 0 0 1 6.482 1.444c2.274 1.046 4.548 2.559 7.289 3.013a7.536 7.536 0 0 0 3.934-.375 20.143 20.143 0 0 0 3.411-1.717 14.48 14.48 0 0 1 6.095-2.49 5.458 5.458 0 0 1 4.196 1.387 3.4 3.4 0 0 1 .705 1.001c.057.261.091.398.068.409Z" fill="#263238"/><path d="M42.63 297.857a6.238 6.238 0 0 0-.978-1.228 5.23 5.23 0 0 0-3.957-1.137 14.288 14.288 0 0 0-5.788 2.536 19.53 19.53 0 0 1-3.411 1.797 7.963 7.963 0 0 1-4.185.42c-2.9-.5-5.208-2.069-7.368-3.115a10.726 10.726 0 0 0-6.06-1.479 5.777 5.777 0 0 0-3.697 1.911 6.672 6.672 0 0 0-.795 1.353s0-.148.068-.421c.123-.387.307-.752.546-1.08a5.822 5.822 0 0 1 3.809-2.172c2.22-.202 4.447.287 6.379 1.399 2.206 1.046 4.548 2.558 7.21 3.013a7.377 7.377 0 0 0 3.888-.375 19.362 19.362 0 0 0 3.354-1.717 14.22 14.22 0 0 1 6.039-2.491 5.352 5.352 0 0 1 4.093 1.388c.288.286.523.621.694.989.075.127.129.265.159.409Z" fill="#263238"/><path d="M11.553 297.789c0-.068.318-.273.739.068a.834.834 0 0 1 .239.91.956.956 0 0 1-1.83-.114.886.886 0 0 1 .26-.875c.41-.341.762-.182.74-.114-.023.068-.25.125-.421.398a.466.466 0 0 0 0 .443.514.514 0 0 0 .387.307.487.487 0 0 0 .467-.46.408.408 0 0 0-.058-.21c-.25-.262-.512-.273-.523-.353ZM25.119 293.468c0-.068.318-.284.75.068a.853.853 0 0 1 .227.91.977.977 0 0 1-.955.637 1 1 0 0 1-.875-.751.863.863 0 0 1 .273-.875c.409-.341.761-.182.727-.114-.034.068-.25.125-.42.398a.501.501 0 0 0 0 .443.514.514 0 0 0 .386.308.48.48 0 0 0 .41-.251.397.397 0 0 0 0-.42c-.25-.262-.512-.273-.523-.353ZM38.275 297.982c0-.068.318-.272.75.069a.85.85 0 0 1 .228.909.979.979 0 0 1-.955.637 1.004 1.004 0 0 1-.876-.739.887.887 0 0 1 .273-.887c.41-.341.762-.182.728-.114-.035.069-.25.137-.421.398a.481.481 0 0 0 .104.66.478.478 0 0 0 .226.091.478.478 0 0 0 .409-.25.398.398 0 0 0 0-.421c-.193-.25-.443-.273-.466-.353Z" fill="#263238"/><path d="m384.409 272.409 3.9 40.458h19.717l4.719-40.458h-28.336Z" fill="#455A64"/><path d="M384.409 267.178a8.452 8.452 0 0 0-1.854 5.345h32.044a5.984 5.984 0 0 0-1.854-5.345h-28.336Z" fill="#263238"/><path d="m388.059 263.471-1.08 4.003 24.186.182-1.603-4.23-21.503.045Z" fill="#263238"/><path d="M384.045 282.541c0 .375 2.274 20.399 2.274 20.399h24.095l2.275-20.365-28.644-.034Z" fill="#EE4248"/></svg>