<svg width="563" height="382" fill="none" xmlns="http://www.w3.org/2000/svg"><path d="M48.92 341.888c12.346-8.083 15.483-23.566 15.354-37.595 0-2.335.297-4.789-.782-6.866-1.078-2.078-3.66-3.532-5.807-2.602-1.771.771-2.582 2.77-3.611 4.412a13.747 13.747 0 0 1-5.67 5.095c-1.523.732-3.393 1.158-4.857.317-1.979-1.158-2.186-3.958-2.117-6.263.138-4.326.27-8.65.396-12.97a21.257 21.257 0 0 0-.535-6.925 7.267 7.267 0 0 0-4.462-4.947c-2.226-.673-5.016.534-5.55 2.79-.11.959-.157 1.924-.138 2.889a2.441 2.441 0 0 1-1.504 2.265 2.87 2.87 0 0 1-2.553-1.128 30.926 30.926 0 0 1-5.401-8.498 42.564 42.564 0 0 0-5.026-8.746c-2.137-2.612-5.135-4.709-8.499-4.947-3.364-.237-6.994 1.702-7.915 4.947-.92 3.245.92 6.619 2.969 9.31a52.11 52.11 0 0 0 10.675 10.546 4.296 4.296 0 0 1 1.78 1.979c.465 1.563-1.058 3.057-2.611 3.532-1.771.534-3.671.307-5.501.475-1.83.168-3.849.92-4.58 2.612-.99 2.354.929 4.887 2.858 6.559a45.263 45.263 0 0 0 13.119 7.915 15.223 15.223 0 0 1 4.887 2.493c1.366 1.227 2.157 3.334 1.277 4.947-.88 1.612-3.058 2.087-4.868 1.711a31.876 31.876 0 0 1-5.075-1.998c-3.206-1.276-7.38-1.158-9.518 1.553a7.266 7.266 0 0 0-.99 6.47 16.927 16.927 0 0 0 3.424 5.818 45.144 45.144 0 0 0 18.966 13.851c7.43 2.75 14.365 3.611 21.874 1.098" fill="#EE4248"/><path d="m3.706 260.059.228.228.682.623c.604.554 1.484 1.365 2.602 2.444a87.907 87.907 0 0 1 8.746 9.784c1.692 2.187 3.453 4.67 5.293 7.361 1.84 2.691 3.77 5.6 5.699 8.716a103.434 103.434 0 0 1 5.55 10.052c.87 1.791 1.632 3.67 2.404 5.58.772 1.909 1.563 3.848 2.355 5.817a209.888 209.888 0 0 1 7.825 22.518 102.568 102.568 0 0 1 3.453 19.134 74.01 74.01 0 0 1-.099 13.108 70.653 70.653 0 0 1-.435 3.542c-.06.386-.099.693-.139.92a2.502 2.502 0 0 0 0 .317c.034-.1.06-.203.08-.307 0-.227.099-.534.168-.92.158-.801.336-1.979.524-3.532a71.13 71.13 0 0 0 .238-13.148 100.197 100.197 0 0 0-3.374-19.213 206.834 206.834 0 0 0-7.806-22.587 3047.54 3047.54 0 0 1-2.355-5.808c-.781-1.909-1.553-3.799-2.423-5.609a104.276 104.276 0 0 0-5.6-10.082 305.131 305.131 0 0 0-5.738-8.696c-1.84-2.691-3.631-5.164-5.353-7.351a83.471 83.471 0 0 0-8.904-9.715 73.697 73.697 0 0 0-2.671-2.384l-.703-.604c-.158-.128-.237-.198-.247-.188Z" fill="#263238"/><path d="M32.773 299.059c.118-.32.2-.652.247-.989.139-.643.317-1.563.505-2.721.386-2.305.821-5.501 1.276-9.023.455-3.522.93-6.708 1.356-9.003.207-1.138.386-2.068.514-2.711.09-.322.143-.654.158-.989-.15.315-.26.647-.326.989a45.914 45.914 0 0 0-.653 2.682c-.495 2.285-.99 5.471-1.474 9.003-.485 3.532-.851 6.628-1.148 9.042-.148 1.079-.277 1.979-.366 2.731a4.288 4.288 0 0 0-.089.989ZM2.687 292.767c.393.093.794.15 1.197.168.772.089 1.9.208 3.275.406 2.76.356 6.56.989 10.715 1.86 4.155.87 7.914 1.85 10.556 2.612 1.345.375 2.424.712 3.166.939.38.143.775.245 1.177.307a8.678 8.678 0 0 0-1.118-.465c-.732-.277-1.8-.653-3.136-1.068-2.661-.851-6.391-1.86-10.556-2.741a108.153 108.153 0 0 0-10.764-1.751 44.506 44.506 0 0 0-3.295-.257 6.035 6.035 0 0 0-1.217-.01ZM45.12 332.519c.088-.109.161-.229.218-.356l.544-1.069c.465-.93 1.108-2.285 1.88-3.957 1.543-3.384 3.522-8.123 5.63-13.376 2.106-5.254 4.055-10.012 5.52-13.416l1.75-4.036.476-1.098c.099-.258.148-.396.128-.396a1.96 1.96 0 0 0-.207.356l-.545 1.068c-.475.93-1.108 2.286-1.88 3.958-1.543 3.383-3.522 8.122-5.639 13.376-2.117 5.253-4.046 10.012-5.52 13.415a431.68 431.68 0 0 1-1.751 4.037l-.465 1.098c-.063.125-.11.258-.139.396Z" fill="#263238"/><path d="M5.28 318.787s.128.079.385.178l1.158.405 4.274 1.484c3.6 1.247 8.557 3.028 14.028 5.006 5.472 1.979 10.448 3.71 14.079 4.888 1.82.593 3.285 1.049 4.313 1.345l1.178.337c.277.079.425.109.425.089a2.038 2.038 0 0 0-.396-.168l-1.157-.416-4.264-1.474c-3.601-1.247-8.558-3.027-14.03-5.006-5.47-1.979-10.457-3.72-14.078-4.897a189.141 189.141 0 0 0-4.313-1.346l-1.187-.336a2.04 2.04 0 0 0-.416-.089Z" fill="#263238"/><path d="m450.405 237.492-59.687-.277a12.976 12.976 0 0 1-9.184-3.841 12.975 12.975 0 0 1-3.757-9.218l.634-149.223a12.985 12.985 0 0 1 3.854-9.162 12.985 12.985 0 0 1 9.205-3.749l59.687.267a13.001 13.001 0 0 1 12.951 13.02l-.634 149.233a12.989 12.989 0 0 1-13.069 12.95Z" fill="#455A64"/><path d="M451.078 67.483h-11.575a2.86 2.86 0 0 0-2.82 2.909v2.097a2.888 2.888 0 0 1-2.82 2.919l-22.567-.109a2.857 2.857 0 0 1-2.61-1.856 2.867 2.867 0 0 1-.18-1.112v-2.117a2.868 2.868 0 0 0-2.79-2.968H391.51a9.098 9.098 0 0 0-6.444 2.628 9.092 9.092 0 0 0-2.698 6.414l-.623 145.662a9.098 9.098 0 0 0 9.072 9.121l59.568.277a9.112 9.112 0 0 0 9.152-9.042l.613-145.662a9.087 9.087 0 0 0-5.583-8.457 9.09 9.09 0 0 0-3.489-.704Z" fill="#fff"/><path d="M450.098 166.596h-58.945v3.947h58.945v-3.947ZM448.001 182.119c0 .138-12.584.257-28.097.257-15.513 0-28.108-.119-28.108-.257 0-.139 12.585-.258 28.108-.258s28.097.119 28.097.258ZM448.001 88.616c0 .148-12.584.257-28.097.257-15.513 0-28.108-.109-28.108-.257 0-.149 12.585-.258 28.108-.258s28.097.09 28.097.258ZM448.001 189.301c0 .139-12.584.257-28.097.257-15.513 0-28.108-.118-28.108-.257 0-.138 12.585-.257 28.108-.257s28.097.109 28.097.257ZM448.001 196.454c0 .139-12.584.257-28.097.257-15.513 0-28.108-.118-28.108-.257 0-.138 12.585-.257 28.108-.257s28.097.138 28.097.257ZM448.001 203.657c0 .138-12.584.257-28.097.257-15.513 0-28.108-.119-28.108-.257 0-.139 12.585-.258 28.108-.258s28.097.109 28.097.258ZM448.001 210.829c0 .149-12.584.258-28.097.258-15.513 0-28.108-.109-28.108-.258 0-.148 12.585-.257 28.108-.257s28.097.119 28.097.257ZM448.802 218.972c0 .138-12.584.257-28.097.257-15.513 0-28.107-.119-28.107-.257 0-.139 12.584-.258 28.107-.258s28.097.109 28.097.258Z" fill="#455A64"/><path d="M450.89 96.778h-59.094v57.174h59.094V96.778Z" fill="#E0E0E0"/><path d="m396.377 149.055 16.354-29.423 13.366 18.807 8.122-9.992 12.09 20.608h-49.932ZM431.796 113.913a4.259 4.259 0 0 1-2.627 3.931 4.255 4.255 0 1 1-1.628-8.185 4.267 4.267 0 0 1 4.255 4.254Z" fill="#EE4248"/><path d="M446.309 149.213v-3.473c0-2.265 0-5.55-.069-9.715 0-8.35-.069-20.242-.119-34.518l.238.237h-49.923c-.069.06.525-.534.277-.277v47.726l-.247-.247 36.101.128 10.191.06h3.64H442.856l-10.13.059-36.26.129h-.247v-47.973c-.257.247.336-.357.287-.287H446.527v.415c-.059 14.346-.099 26.287-.129 34.677 0 4.135 0 7.4-.059 9.656v3.166a.861.861 0 0 1-.03.237ZM140.265 11.427v131.8c0 6.311 5.116 11.427 11.427 11.427h199.096c6.311 0 11.427-5.116 11.427-11.427v-131.8C362.215 5.116 357.099 0 350.788 0H151.692c-6.311 0-11.427 5.116-11.427 11.427Z" fill="#455A64"/><path d="M155.442 4.877v144.9h185.354V4.877H155.442Z" fill="#fff"/><path d="M351.055 71.391a5.937 5.937 0 1 1 0 11.873 5.937 5.937 0 0 1 0-11.873ZM146.657 55.245v44.164c0 .667.54 1.207 1.207 1.207h.039c.667 0 1.207-.54 1.207-1.207V55.245c0-.667-.54-1.207-1.207-1.207h-.039c-.667 0-1.207.54-1.207 1.207Z" fill="#263238"/><path d="M298.936 15.76h-58.945v3.948h58.945V15.76ZM222.153 83.56h-58.945v3.947h58.945V83.56ZM313.292 30.442c0 .148-16.403.257-36.606.257-20.202 0-36.655-.109-36.655-.257 0-.148 16.403-.257 36.655-.257 20.252 0 36.606.119 36.606.257ZM313.292 39.06c0 .138-16.403.256-36.606.256-20.202 0-36.655-.118-36.655-.257 0-.138 16.403-.257 36.655-.257 20.252 0 36.606.109 36.606.257ZM313.292 47.667c0 .138-16.403.257-36.606.257-20.202 0-36.655-.119-36.655-.257 0-.139 16.403-.258 36.655-.258 20.252 0 36.606.12 36.606.258ZM313.292 56.274c0 .148-16.403.257-36.606.257-20.202 0-36.655-.109-36.655-.257 0-.148 16.403-.257 36.655-.257 20.252 0 36.606.118 36.606.257ZM313.292 64.871c0 .139-16.403.258-36.606.258-20.202 0-36.655-.12-36.655-.258s16.403-.257 36.655-.257c20.252 0 36.606.129 36.606.257ZM297.215 73.498c0 .139-12.812.258-28.612.258-15.8 0-28.612-.12-28.612-.258s12.802-.257 28.612-.257c15.81 0 28.612.119 28.612.257ZM260.016 99.083c0 .138-21.528.257-48.082.257-26.554 0-48.083-.119-48.083-.257 0-.139 21.529-.257 48.083-.257s48.082.108 48.082.257ZM260.016 106.256c0 .148-21.528.257-48.082.257-26.554 0-48.083-.109-48.083-.257 0-.149 21.529-.258 48.083-.258s48.082.119 48.082.258ZM260.016 113.438c0 .139-21.528.257-48.082.257-26.554 0-48.083-.118-48.083-.257 0-.138 21.529-.257 48.083-.257s48.082.109 48.082.257ZM260.016 120.611c0 .148-21.528.257-48.082.257-26.554 0-48.083-.109-48.083-.257 0-.148 21.529-.257 48.083-.257s48.082.118 48.082.257ZM260.016 127.794c0 .138-21.528.257-48.082.257-26.554 0-48.083-.119-48.083-.257 0-.139 21.529-.258 48.083-.258s48.082.119 48.082.258Z" fill="#455A64"/><path d="M222.945 13.732h-59.094v57.174h59.094V13.732Z" fill="#EE4248"/><path d="m168.432 66.019 16.354-29.423 13.366 18.797 8.122-9.982 12.09 20.608h-49.932ZM203.851 30.867a4.253 4.253 0 1 1-8.509.022 4.253 4.253 0 0 1 8.509-.022Z" fill="#E0E0E0"/><path d="M218.364 66.177v-3.472c0-2.276 0-5.55-.059-9.716 0-8.35-.069-20.242-.119-34.518l.238.238h-49.923c-.069.059.525-.525.277-.268v47.687l-.247-.248 36.101.12 10.181.069h3.65H214.921l-10.131.069-36.259.118h-.247V18.283c-.258.247.336-.356.287-.297h50.169v.248c-.049 14.335-.089 26.286-.119 34.676 0 4.136-.049 7.4-.059 9.656V65.732a.663.663 0 0 1-.198.445Z" fill="#455A64"/><path d="M315.102 91.138h-41.819v40.465h41.819V91.138Z" fill="#EE4248"/><path d="m276.528 128.14 11.565-20.816 9.468 13.307 5.748-7.074 8.548 14.583h-35.329ZM301.588 103.268a2.969 2.969 0 1 1-5.938 0 2.969 2.969 0 0 1 5.938 0Z" fill="#E0E0E0"/><path d="M311.857 128.249v-9.379c0-5.936-.049-14.326-.089-24.427l.168.168h-35.329c-.05 0 .376-.376.198-.188v33.747l-.168-.169 25.446.188h9.784-2.503l-7.173.05-25.653.089h-.178V94.552c-.178.168.247-.258.207-.208H312.075v.168c0 10.151-.069 18.6-.089 24.536 0 2.968 0 5.243-.05 6.836v2.246c0 .119-.069.129-.079.119Z" fill="#455A64"/><path d="M345.208 170.286H63.789c-7.961 0-14.415 6.454-14.415 14.415v176.331c0 7.961 6.454 14.414 14.415 14.414h281.419c7.961 0 14.415-6.453 14.415-14.414V184.701c0-7.961-6.454-14.415-14.415-14.415Z" fill="#263238"/><path d="M36.404 360.28h336.13v.346a17.61 17.61 0 0 1-17.61 17.61H54.014a17.609 17.609 0 0 1-17.61-17.61v-.346Z" fill="#263238"/><path d="M350.432 178.438H57.705v173.254h292.727V178.438Z" fill="#E0E0E0"/><path d="m173.913 360.28 4.175 6.638h58.688l3.878-6.638h-66.741Z" fill="#455A64"/><path d="M336.977 189.984H67.47v161.649h269.507V189.984Z" fill="#FAFAFA"/><path d="M78.975 197.948a2.26 2.26 0 0 1-1.391 2.1 2.26 2.26 0 0 1-2.473-.484 2.271 2.271 0 0 1-.495-2.471 2.265 2.265 0 0 1 4.36.855ZM88.196 197.948a2.27 2.27 0 0 1-1.394 2.101 2.264 2.264 0 0 1-2.963-2.963 2.266 2.266 0 0 1 2.102-1.394 2.256 2.256 0 0 1 2.255 2.256ZM97.427 197.948a2.26 2.26 0 0 1-1.392 2.1 2.26 2.26 0 0 1-2.472-.484 2.271 2.271 0 0 1-.496-2.471 2.265 2.265 0 0 1 2.094-1.401 2.257 2.257 0 0 1 2.266 2.256ZM336.977 207.842c0 .148-60.35.257-134.749.257s-134.759-.109-134.759-.257c0-.149 60.35-.258 134.759-.258 74.409 0 134.749.119 134.749.258ZM359.623 360.418H49.374v.99h310.249v-.99ZM148.507 286.386H89.561v3.947h58.946v-3.947ZM224.647 231.635h-58.946v3.948h58.946v-3.948ZM312.322 246.327c0 .139-32.826.257-73.31.257s-73.311-.118-73.311-.257c0-.138 32.817-.267 73.311-.267 40.494 0 73.31.119 73.31.267ZM312.322 254.934c0 .139-32.826.258-73.31.258s-73.311-.119-73.311-.258c0-.138 32.817-.257 73.311-.257 40.494 0 73.31.149 73.31.257ZM312.322 263.542c0 .148-32.826.257-73.31.257s-73.311-.109-73.311-.257c0-.149 32.817-.258 73.311-.258 40.494 0 73.31.119 73.31.258ZM312.322 272.159c0 .138-32.826.257-73.31.257s-73.311-.119-73.311-.257c0-.139 32.817-.267 73.311-.267 40.494 0 73.31.118 73.31.267ZM312.322 280.766c0 .139-32.826.257-73.31.257s-73.311-.118-73.311-.257c0-.138 32.817-.257 73.311-.257 40.494 0 73.31.109 73.31.257ZM222.935 289.373c0 .139-12.812.258-28.612.258-15.8 0-28.622-.119-28.622-.258 0-.138 12.862-.257 28.622-.257s28.612.119 28.612.257ZM311.244 306.083c0 .149-21.578.258-48.181.258-26.604 0-48.181-.109-48.181-.258 0-.148 21.567-.257 48.181-.257 26.613 0 48.181.119 48.181.257ZM311.244 315.225c0 .138-21.578.257-48.181.257-26.604 0-48.181-.119-48.181-.257 0-.139 21.567-.257 48.181-.257 26.613 0 48.181.118 48.181.257ZM311.244 324.367c0 .138-21.578.257-48.181.257-26.604 0-48.181-.119-48.181-.257 0-.139 21.567-.258 48.181-.258 26.613 0 48.181.109 48.181.258ZM311.244 333.508c0 .139-21.578.257-48.181.257-26.604 0-48.181-.118-48.181-.257 0-.138 21.567-.257 48.181-.257 26.613 0 48.181.109 48.181.257ZM148.655 305.213c0 .138-12.861.257-28.691.257-15.829 0-28.69-.119-28.69-.257 0-.139 12.861-.257 28.69-.257 15.83 0 28.691.108 28.691.257ZM148.655 312.386c0 .148-12.861.257-28.691.257-15.829 0-28.69-.109-28.69-.257 0-.149 12.861-.258 28.69-.258 15.83 0 28.691.079 28.691.258ZM148.655 319.568c0 .139-12.861.257-28.691.257-15.829 0-28.69-.118-28.69-.257 0-.138 12.861-.257 28.69-.257 15.83 0 28.691.119 28.691.257ZM148.655 326.741c0 .148-12.861.257-28.691.257-15.829 0-28.69-.109-28.69-.257 0-.148 12.861-.257 28.69-.257 15.83 0 28.691.118 28.691.257ZM148.655 333.973c0 .139-12.861.257-28.691.257-15.829 0-28.69-.118-28.69-.257 0-.138 12.861-.257 28.69-.257 15.83 0 28.691.069 28.691.257Z" fill="#455A64"/><path d="M148.655 218.754H89.561v57.174h59.094v-57.174Z" fill="#E0E0E0"/><path d="m94.142 271.031 16.354-29.423 13.366 18.807 8.133-9.982 12.079 20.598H94.142ZM129.561 235.889a4.259 4.259 0 0 1-2.626 3.931 4.256 4.256 0 0 1-5.559-5.559 4.256 4.256 0 0 1 6.939-1.38 4.258 4.258 0 0 1 1.246 3.008Z" fill="#EE4248"/><path d="M144.074 271.189a2.149 2.149 0 0 1 0-.227v-3.245c0-2.266 0-5.541-.069-9.706 0-8.35-.069-20.242-.119-34.528l.238.247H94.202c-.07.06.524-.534.277-.277v47.716l-.248-.237 36.101.119 10.191.069h3.64-3.541l-10.131.069-36.26.119h-.237V223.345l.287-.287h50.169v.237c0 14.346-.099 26.287-.128 34.677 0 4.145 0 7.4-.06 9.656v3.166c0 .158-.178.405-.188.395Z" fill="#455A64"/><path d="M207.482 301.72h-41.82v40.465h41.82V301.72Z" fill="#E0E0E0"/><path d="m168.907 338.722 11.565-20.816 9.468 13.307 5.749-7.074 8.557 14.583h-35.339ZM193.967 313.85a2.969 2.969 0 1 1-5.938 0 2.969 2.969 0 0 1 5.938 0Z" fill="#EE4248"/><path d="M204.246 338.841a1.588 1.588 0 0 1 0-.169v-2.295c0-1.603 0-3.957-.049-6.876 0-5.936 0-14.326-.079-24.427l.168.168h-35.339s.375-.375.197-.188v33.767l-.178-.178 25.555.089 7.203.049h1.909-9.043l-25.663.089h-.168v-33.905c-.179.169.237-.257.197-.207h35.508v.168c0 10.151-.069 18.6-.089 24.546v9.072a.837.837 0 0 1-.129.297Z" fill="#455A64"/><path d="m556.69 360.685-9.893-1.177-2.325 18.54 14.474 1.87.218-1.138c.93-5.085 4.343-25.901 3.729-29.452-.682-3.958-6.203 11.357-6.203 11.357Z" fill="#EE4248"/><path d="M562.033 348.002c.178 0-.505 6.985-1.524 15.543-1.019 8.557-1.978 15.483-2.157 15.463-.178-.02.515-6.925 1.524-15.543 1.009-8.617 1.979-15.483 2.157-15.463ZM558.748 359.815c-.099.138-.613-.06-1.088-.515-.475-.455-.673-.989-.534-1.078.138-.089.554.198.989.623.435.426.742.851.633.97ZM559.54 358.707c-.08.158-.663 0-1.237-.436-.574-.435-.89-.989-.762-1.088.129-.099.614.168 1.148.574.534.406.94.791.851.95Z" fill="#263238"/><path d="M558.956 373.408c0 .079-.247.327-.742.683-.629.428-1.215.915-1.751 1.454a4.496 4.496 0 0 0-1.069 1.9c-.138.554-.099.92-.198.94-.099.02-.277-.347-.247-.99.07-.844.418-1.641.989-2.265a6.58 6.58 0 0 1 1.979-1.415c.623-.277.989-.386 1.039-.307ZM556.898 359.538c.158-.07.475.297.594.841.118.544 0 .989-.178.989-.179 0-.337-.396-.446-.881-.108-.484-.138-.88.03-.949ZM555.909 359.696c.168 0 .257.514.198 1.148-.06.633-.268 1.108-.436 1.068-.168-.039-.267-.544-.198-1.138.07-.593.258-1.078.436-1.078ZM550.655 379.522l-54.839-5.56-113.715 2.543 30.234-24.377 75.893-3.641 66.355 9.141-3.928 21.894Z" fill="#263238"/><path d="M457.964 364.296c0 .149-10.675.258-23.844.258-13.168 0-23.833-.109-23.833-.258 0-.148 10.665-.257 23.833-.257 13.169 0 23.844.119 23.844.257Z" fill="#455A64"/><path d="m452.661 350.188 3.898 24.526h7.479l-5.688-24.793-5.689.267Z" fill="#000"/><path d="m481.609 375.041-1.108-9.894-18.59 1.979 1.435 14.484h1.157c5.165-.257 26.208-1.662 29.522-3.067 3.74-1.613-12.416-3.502-12.416-3.502Z" fill="#EE4248"/><path d="M494.411 377.504c0 .178-6.925 1.098-15.483 2.058-8.558.96-15.523 1.593-15.543 1.415-.02-.178 6.926-1.088 15.474-2.048s15.532-1.563 15.552-1.425ZM482.143 377.029c-.168-.069-.089-.613.248-1.177.336-.564.801-.881.93-.772.128.109-.07.584-.376 1.099-.307.514-.624.92-.802.85ZM483.419 377.504c-.168 0-.148-.643.149-1.306s.732-1.078.88-.989c.149.089 0 .623-.296 1.237-.297.613-.564 1.147-.733 1.058Z" fill="#263238"/><path d="M468.965 380.314c-.059.059-.376-.168-.831-.564a12.155 12.155 0 0 0-1.81-1.375 4.479 4.479 0 0 0-2.098-.604c-.564 0-.92.109-.989 0-.069-.109.267-.346.92-.465.85-.12 1.716.055 2.454.495.702.422 1.32.973 1.82 1.623.416.504.603.831.534.89ZM482.005 375.159c.109.139-.178.525-.683.772-.505.247-.989.228-.989.06 0-.169.306-.416.752-.634.445-.217.821-.346.92-.198ZM481.609 374.229c0 .179-.445.376-1.068.456-.624.079-1.138 0-1.148-.179-.01-.178.475-.375 1.068-.455.594-.079 1.108.01 1.148.178Z" fill="#263238"/><path d="m372.84 261.87 15.83-.287c.218-1.831.524-8.964.524-8.964s6.629-.623 7.114-7.173c.484-6.549.277-21.706.277-21.706a22.86 22.86 0 0 0-23.101 1.464l-.99.693.346 35.973Z" fill="#B78876"/><path d="M394.398 234.93a.993.993 0 0 1 0-1.356.988.988 0 1 1 1.085 1.598.988.988 0 0 1-1.085-.242Z" fill="#263238"/><path d="M396.07 233.525c-.109.109-.722-.425-1.622-.485-.901-.059-1.593.366-1.682.247-.089-.118.069-.257.366-.455a2.237 2.237 0 0 1 1.355-.336c.475.03.927.214 1.286.524.297.248.366.455.297.505ZM385.623 233.673a.99.99 0 0 1-1.479 1.314.99.99 0 1 1 1.479-1.314Z" fill="#263238"/><path d="M386.177 233.713c-.109.109-.722-.426-1.633-.485-.91-.059-1.583.366-1.682.247-.098-.118.07-.257.376-.455a2.227 2.227 0 0 1 2.642.198c.297.238.386.455.297.495ZM389.382 241.4a4.418 4.418 0 0 1 1.474-.218c.238 0 .436-.059.456-.178a1.256 1.256 0 0 0-.129-.692l-.604-1.88a25.396 25.396 0 0 1-1.246-4.947 24.756 24.756 0 0 1 1.741 4.779c.198.653.376 1.276.564 1.89.135.312.159.661.069.989a.637.637 0 0 1-.435.356 1.533 1.533 0 0 1-.406 0 4.519 4.519 0 0 1-1.484-.099Z" fill="#263238"/><path d="M386.385 242.221c-.911-.623 2.503 1.534 4.353 1.553a2.524 2.524 0 0 1-3.018.822c-1.919-.841-1.335-2.375-1.335-2.375Z" fill="#fff"/><path d="M389.234 252.52a15.312 15.312 0 0 1-8.41-2.968s1.732 4.848 8.321 4.66l.089-1.692Z" fill="#A36957"/><path d="M397.06 221.376a2.467 2.467 0 0 0 2.347-2.05 2.465 2.465 0 0 0-2.643-2.867 2.463 2.463 0 0 0-1.06.346 7.229 7.229 0 0 0 1.88-2.365 2.48 2.48 0 0 0-.465-2.799 2.774 2.774 0 0 0-2.839-.178c-1.395.603-2.494 1.78-3.958 2.275-1.464.495-3.027.247-4.561.317a8.108 8.108 0 0 0-4.729 1.632 5.427 5.427 0 0 0-2.107 4.412c-2.147-.257-4.521-.286-6.213 1.049a6.175 6.175 0 0 0-1.576 2.193 6.17 6.17 0 0 0-.492 2.655 18.51 18.51 0 0 0 1.286 5.293c.12.496.343.961.653 1.365l.802 4.71 2.918-.06-.188-9.794s-.297-4.136 3.265-3.77c3.562.366 8.38 4.373 15.295 3.354a7.502 7.502 0 0 0 3.226-.92 3.188 3.188 0 0 0 1.484-2.869 2.165 2.165 0 0 0-2.325-1.929Z" fill="#263238"/><path d="M373.751 231.714c-.149-.049-4.878-.662-4.433 4.947.446 5.61 5.936 3.285 5.936 3.126 0-.158-1.503-8.073-1.503-8.073Z" fill="#B78876"/><path d="M373.394 237.937s-.098.07-.257.159a.99.99 0 0 1-.722.079 2.43 2.43 0 0 1-1.286-2.068 3.152 3.152 0 0 1 .158-1.415 1.125 1.125 0 0 1 .673-.811.491.491 0 0 1 .594.228c.089.148.059.257.089.267.029.01.118-.099.049-.327a.582.582 0 0 0-.247-.336.718.718 0 0 0-.544-.099 1.404 1.404 0 0 0-.99.989 3.195 3.195 0 0 0-.208 1.583 2.524 2.524 0 0 0 1.603 2.295 1.028 1.028 0 0 0 .881-.217c.207-.198.227-.317.207-.327Z" fill="#A36957"/><path d="M359.999 359.696c2.968 4.422 20.964 31.511 42.453 11.813 27.375-25.07 49.022-47.034 49.022-47.034l8.132 49.616 25.485-1.385s-9.893-73.874-16.205-80.592c-7.014-7.499-13.465-6.866-68.552 36.606l-40.335 30.976Z" fill="#455A64"/><path d="m451.157 275.562 23.804-17.373 1.167 1.87-23.645 17.581-1.326-2.078Z" fill="#263238"/><path d="M457.044 275.028s3.185-8.311 3.957-10.082c.772-1.77 1.929-4.857 2.384-4.946.455-.089 2.117.198 0 5.481-2.117 5.283 2.573 2.058 2.573 2.058l4.58-3.285s3.621 10.823 1.563 14.088a52.95 52.95 0 0 1-5.431 6.876l-9.626-10.19Z" fill="#B78876"/><path d="M457.311 274.058c-.475-1.078-30.749 25.654-36.774 26.564l-17.65-22.982s-3.661-5.818-11.526-15.77c-5.085-6.421-19.094-5.086-22.755 2.74-6.253 13.297-6.332 28.078-9.666 56.838l-1.454 19.451a68.5 68.5 0 0 0 .188 12.426c.534 4.818 1.622 9.893 3.858 9.171l40.375-33.371 1.296-15.156c8.489 8.607 11.131 10.407 15.543 9.715 11.11-1.722 50.002-36.695 50.002-36.695s-10.972-11.842-11.437-12.931Z" fill="#EE4248"/><path d="M463.534 291.847a11.339 11.339 0 0 1-2.167-1.692 47.93 47.93 0 0 1-4.64-4.759 46.677 46.677 0 0 1-3.957-5.342 12.95 12.95 0 0 1-1.336-2.414c.599.693 1.145 1.43 1.632 2.206.99 1.375 2.375 3.255 4.047 5.214a77.204 77.204 0 0 0 4.501 4.828 19.511 19.511 0 0 1 1.92 1.959ZM418.825 309.734c.016-1.549.202-3.092.554-4.6.194-1.538.552-3.05 1.069-4.512a21.22 21.22 0 0 1-.554 4.601 21.512 21.512 0 0 1-1.069 4.511ZM422.684 308.784a16.775 16.775 0 0 1-1.346-3.957 18.096 18.096 0 0 1-.841-4.086 16.82 16.82 0 0 1 1.346 3.957 18.34 18.34 0 0 1 .841 4.086ZM378.974 281.676c.363.4.693.826.99 1.277l2.631 3.581a874.874 874.874 0 0 0 8.806 11.714l8.953 11.615 2.701 3.532c.365.417.696.864.989 1.335a10.475 10.475 0 0 1-1.098-1.217c-.682-.801-1.642-1.978-2.829-3.423a509.176 509.176 0 0 1-9.073-11.526c-3.472-4.551-6.539-8.745-8.686-11.822-1.078-1.534-1.979-2.79-2.513-3.671a10.3 10.3 0 0 1-.871-1.395ZM373.81 301.226a12.594 12.594 0 0 1-2.839-2.197 12.946 12.946 0 0 1-2.503-2.592 12.384 12.384 0 0 1 2.849 2.207 12.234 12.234 0 0 1 2.493 2.582ZM370.347 312.376a24.876 24.876 0 0 1-3.957 5.876 12.113 12.113 0 0 1 1.771-3.086 12.42 12.42 0 0 1 2.186-2.79ZM375.215 327.76c-.109.089-.989-.801-1.979-1.979a8.022 8.022 0 0 1-1.603-2.315c.109-.089.99.802 1.979 1.979a7.937 7.937 0 0 1 1.603 2.315ZM365.796 337.624a8.032 8.032 0 0 1-2.216 1.81 8.177 8.177 0 0 1-2.503 1.385 8.032 8.032 0 0 1 2.216-1.81 8.189 8.189 0 0 1 2.503-1.385ZM378.964 340.236a6.467 6.467 0 0 1-2.631-2.108 6.524 6.524 0 0 1-1.652-2.968c.138-.069.86 1.237 2.038 2.612 1.177 1.375 2.335 2.335 2.245 2.464ZM391.242 330.916a12.672 12.672 0 0 1-2.532 2.493 12.508 12.508 0 0 1-2.87 2.097 12.677 12.677 0 0 1 2.533-2.493 12.293 12.293 0 0 1 2.869-2.097ZM365.974 348.912a7.517 7.517 0 0 1-3.769-3.858c.119-.079.861.87 1.9 1.919 1.038 1.049 1.958 1.84 1.869 1.939ZM393.429 322.101a9.472 9.472 0 0 1-5.61 1.207 58.027 58.027 0 0 1 5.61-1.207ZM384.287 311.703a17.377 17.377 0 0 1-.989 3.522 31.716 31.716 0 0 1-1.158 3.364h-.109c0-.06.06-.079.08-.079.019 0 0 0 0 .108h-.109c.116-1.187.375-2.357.771-3.482a10.897 10.897 0 0 1 1.514-3.433ZM388.155 305.104a11.622 11.622 0 0 1-2.968-1.801 11.403 11.403 0 0 1-2.621-2.226 12.07 12.07 0 0 1 2.918 1.801 11.603 11.603 0 0 1 2.671 2.226ZM380.241 290.561a7.456 7.456 0 0 1-1.465 2.671 7.618 7.618 0 0 1-2.077 2.226 11.846 11.846 0 0 1 1.662-2.533 11.178 11.178 0 0 1 1.88-2.364ZM368.191 288.582a11.357 11.357 0 0 1 0-3.354c.012-1.122.192-2.236.534-3.304a10.537 10.537 0 0 1 0 3.344 10.722 10.722 0 0 1-.534 3.314ZM363.491 310.387a13.406 13.406 0 0 1-.316-3.611 13.174 13.174 0 0 1 .197-3.611c.383 2.389.423 4.821.119 7.222ZM362.838 331.302a5.275 5.275 0 0 1-.88-2.147 5.498 5.498 0 0 1-.396-2.285 10.3 10.3 0 0 1 1.276 4.432ZM379.499 272.268a23.573 23.573 0 0 1-2.553 2.513 21.871 21.871 0 0 1-2.582 2.483 8.86 8.86 0 0 1 2.226-2.85 8.676 8.676 0 0 1 2.909-2.146ZM372.425 269.903a10.316 10.316 0 0 1-.119-3.275 10.47 10.47 0 0 1 .396-3.255 10.68 10.68 0 0 1 .119 3.275c.034 1.099-.1 2.196-.396 3.255ZM389.758 267.548a59.554 59.554 0 0 1-5.382-3.67 12.733 12.733 0 0 1 5.382 3.67ZM385.989 279.895a12.183 12.183 0 0 1-.327-3.462 12.01 12.01 0 0 1 .188-3.473 23.51 23.51 0 0 1 .139 6.926v.009ZM396.14 287.118a78.487 78.487 0 0 1-5.937-1.425c2.077-.126 4.144.37 5.937 1.425ZM396.832 279.757a16.346 16.346 0 0 1 0-5.827c.26.946.357 1.93.287 2.908a8.311 8.311 0 0 1-.287 2.919ZM404.569 292.114a13.058 13.058 0 0 1-.426-3.671 13.537 13.537 0 0 1 .099-3.69 26.99 26.99 0 0 1 .327 7.361ZM398.623 296.289c-.109.099-.91-.633-1.791-1.623-.88-.989-1.514-1.879-1.405-1.978.109-.099.91.633 1.791 1.632.88.999 1.514 1.88 1.405 1.969ZM406.142 301.988a8.906 8.906 0 0 1-2.899.474 8.6 8.6 0 0 1-2.968 0 8.282 8.282 0 0 1 2.889-.474 8.102 8.102 0 0 1 2.978 0ZM411.801 304.876a21.158 21.158 0 0 1-.247-6.519 20.44 20.44 0 0 1 .247 6.519ZM417.381 315.71a9.558 9.558 0 0 1-3.592 0 9.408 9.408 0 0 1-3.492-.821c1.191-.005 2.38.101 3.552.316a18 18 0 0 1 3.532.505ZM426.977 310.714a22.526 22.526 0 0 1-2.216 6.44c.116-1.132.407-2.24.861-3.284.283-1.117.74-2.182 1.355-3.156ZM433.893 301.968a18.54 18.54 0 0 1-5.936-1.652 19.21 19.21 0 0 1 5.936 1.652ZM439.453 305.282a9.582 9.582 0 0 1-2.147 2.246 9.91 9.91 0 0 1-2.483 1.87 9.245 9.245 0 0 1 2.147-2.256 9.784 9.784 0 0 1 2.483-1.86ZM441.679 297.1a8.052 8.052 0 0 1-.989-3.176 7.927 7.927 0 0 1-.139-3.344 17.79 17.79 0 0 1 .643 3.255c.264 1.071.426 2.164.485 3.265ZM452.265 295.22a381.258 381.258 0 0 1-6.173 6.026 19.106 19.106 0 0 1 6.173-6.026ZM453.314 291.431a11.215 11.215 0 0 1-3.275-.989 11.105 11.105 0 0 1-3.087-1.454c1.132.164 2.233.497 3.265.989a11.6 11.6 0 0 1 3.097 1.454ZM452.305 287.365a8.042 8.042 0 0 1-1.039-2.671 8.172 8.172 0 0 1-.544-2.82c.486.825.821 1.729.989 2.671.357.9.558 1.853.594 2.82ZM396.921 315.868c-.119.089-.989-.89-1.86-2.176a7.972 7.972 0 0 1-1.444-2.474 8.093 8.093 0 0 1 1.86 2.177 8.485 8.485 0 0 1 1.444 2.473ZM472.349 365.711a1.92 1.92 0 0 1-.079-.425c-.04-.297-.099-.713-.178-1.247-.139-1.118-.357-2.73-.624-4.788-.564-4.155-1.365-10.181-2.562-17.591-1.197-7.41-2.79-16.205-5.056-25.861a13.612 13.612 0 0 0-1.177-3.493 11.087 11.087 0 0 0-2.375-2.889 10.255 10.255 0 0 0-7.202-2.334 9.502 9.502 0 0 0-3.819 1.038 25.256 25.256 0 0 0-3.393 2.296l-6.807 5.055c-9.161 6.876-17.739 13.614-25.396 19.936-7.658 6.321-14.336 12.238-19.926 17.254-2.829 2.434-5.847 4.383-8.904 4.699a9.012 9.012 0 0 1-4.145-.504 12.422 12.422 0 0 1-3.077-1.692 26.006 26.006 0 0 1-3.562-3.275l-.841-.93a2.413 2.413 0 0 1-.277-.336c.114.086.217.186.307.296l.88.901a28.985 28.985 0 0 0 3.612 3.185 12.825 12.825 0 0 0 3.037 1.623 8.846 8.846 0 0 0 4.036.445c2.968-.326 5.936-2.256 8.707-4.689 5.55-5.036 12.208-11.022 19.866-17.344a694.547 694.547 0 0 1 25.386-19.984l6.807-5.056a26.028 26.028 0 0 1 3.473-2.335 9.896 9.896 0 0 1 4.016-1.088c2.739-.173 5.44.709 7.549 2.464.999.859 1.84 1.887 2.483 3.037a14.132 14.132 0 0 1 1.217 3.611c2.246 9.686 3.789 18.501 4.947 25.911 1.157 7.41 1.899 13.455 2.404 17.62.227 2.068.406 3.68.534 4.808 0 .535.089.99.119 1.257.02.141.026.283.02.425Z" fill="#263238"/><path d="M483.904 365.157c-.32.099-.653.152-.989.158-.643.07-1.573.149-2.721.228a363.37 363.37 0 0 1-8.993.475l-8.993.386-2.731.099c-.328.038-.66.038-.989 0 .32-.106.653-.166.989-.178.643-.08 1.573-.169 2.721-.268 2.305-.187 5.481-.375 8.993-.534l9.003-.326 2.731-.06a3.96 3.96 0 0 1 .979.02ZM458.547 316.739a33.63 33.63 0 0 1-8.647 9.428c-.098-.119 1.979-2.048 4.393-4.65 2.414-2.602 4.106-4.867 4.254-4.778Z" fill="#263238"/><path d="M459.507 319.746a33.47 33.47 0 0 1-4.215 2.741 32.864 32.864 0 0 1-4.353 2.552 19.49 19.49 0 0 1 4.076-2.968 19.698 19.698 0 0 1 4.492-2.325Z" fill="#263238"/><path d="M542.859 367.71c-.2.022-.403.022-.603 0l-1.741-.099-6.332-.604-20.866-2.176c-8.152-.851-15.512-1.801-20.865-2.068-2.671-.139-4.848-.129-6.341-.069l-1.722.069c-.204.025-.41.025-.613 0 .198-.049.4-.082.603-.099.386-.059.989-.109 1.722-.178a61.824 61.824 0 0 1 6.371-.089c5.382.178 12.753 1.068 20.895 1.919l20.865 2.305 6.322.762 1.712.228c.201.009.4.043.593.099Z" fill="#455A64"/><path d="M541.603 378.771c-.139 0 .307-4.947.989-11.091.683-6.144 1.375-11.041 1.514-11.021.138.02-.307 4.946-.989 11.08-.683 6.134-1.376 11.042-1.514 11.032Z" fill="#455A64"/></svg>